<mxfile host="app.diagrams.net" modified="2023-11-14T23:09:46.164Z" agent="Mozilla/5.0 (Windows NT 10.0; Win64; x64) AppleWebKit/537.36 (KHTML, like Gecko) Chrome/119.0.0.0 Safari/537.36" version="22.1.1" etag="8GGplXqXQ0JAGafqPGLu" type="github">
  <diagram name="Page-1" id="UvkB4t-pwY2h5yAGBkfL">
    <mxGraphModel>
      <root>
        <mxCell id="0" />
        <mxCell id="1" parent="0" />
      </root>
    </mxGraphModel>
  </diagram>
</mxfile>
